<svg width="16" height="15" viewBox="0 0 16 15" fill="none" xmlns="http://www.w3.org/2000/svg">
<path d="M15.6758 8.03687L9.83981 14.2244C9.73434 14.365 9.55856 14.4002 9.41794 14.4002C9.27731 14.4002 9.13669 14.365 9.03122 14.2595C8.78513 14.0486 8.78513 13.697 8.99606 13.4861L13.9179 8.21266H0.664032C0.347626 8.21266 0.101532 7.96656 0.101532 7.68531C0.101532 7.40406 0.347626 7.08766 0.664032 7.08766H13.9179L8.99606 1.84937C8.78513 1.63844 8.78513 1.28687 9.03122 1.07594C9.27731 0.865 9.62888 0.865 9.83981 1.11109L15.6758 7.29859C15.8867 7.50953 15.8867 7.82594 15.6758 8.03687Z" fill="white"/>
</svg>
