<svg width="138" height="138" viewBox="0 0 138 138" fill="none" xmlns="http://www.w3.org/2000/svg">
<path d="M136.548 118.148H129.063V106.879C129.075 104.501 128.59 102.145 127.637 99.9648C127.646 99.875 127.646 99.7842 127.637 99.6944C127.636 99.1354 127.307 98.6291 126.796 98.3999C124.343 94.0677 120.141 90.9989 115.261 89.9767V79.1781C115.236 74.4365 113.352 69.8931 110.014 66.519C106.675 63.1449 102.146 61.2087 97.3948 61.123V60.7955V60.796C97.4041 55.4421 95.886 50.1966 93.0175 45.6719C92.9335 45.3908 92.7641 45.1421 92.533 44.9606C89.3866 40.3147 84.9164 36.7171 79.7004 34.6316C82.3595 32.4095 84.4755 29.6116 85.8883 26.4507C86.7474 24.386 86.8853 22.093 86.2805 19.9408C85.6753 17.7886 84.3618 15.9018 82.552 14.5845C84.2661 13.6652 85.6738 12.2655 86.6012 10.558C86.8175 10.1935 86.8602 9.75164 86.7168 9.35289C86.5734 8.95366 86.2591 8.63919 85.86 8.49515C84.4003 7.93151 82.8476 7.64668 81.2827 7.65594C81.6596 5.69358 81.5119 3.66685 80.8552 1.77966C80.553 1.06735 79.7361 0.726018 79.0159 1.01131C77.0785 1.86071 75.4819 3.3335 74.4817 5.19437C73.3102 4.20093 71.967 3.4293 70.518 2.91806C70.1276 2.79254 69.702 2.84071 69.3497 3.05052C68.9979 3.26031 68.7533 3.61092 68.6786 4.01339C68.279 5.9442 68.4628 7.9496 69.2063 9.77584C68.2469 9.77167 67.2899 9.87634 66.3546 10.0889C62.9738 10.892 60.2656 13.4101 59.2254 16.7188C57.7996 20.7453 58.2131 26.6782 59.1256 30.8042C59.3712 31.9246 59.6761 33.031 60.0381 34.1194C54.2795 36.0794 49.309 39.842 45.8653 44.8471C45.5093 45.061 45.2642 45.4195 45.1951 45.8285C42.3894 50.313 40.9068 55.4956 40.9175 60.7818V61.1092C36.1518 61.1759 31.6026 63.1068 28.2489 66.4859C24.8947 69.8645 23.0033 74.4223 22.9809 79.1782V89.9911C18.1015 91.0132 13.8986 94.082 11.4461 98.4138C10.9351 98.643 10.606 99.1497 10.6046 99.7087C10.5963 99.7986 10.5963 99.8893 10.6046 99.9792C9.65408 102.155 9.1681 104.506 9.1788 106.88V118.148H1.66485C0.877208 118.148 0.239014 118.785 0.239014 119.571C0.247832 122.674 1.40122 125.665 3.47876 127.974C5.55621 130.283 8.41253 131.748 11.5033 132.091V136.189C11.5033 136.566 11.6532 136.928 11.921 137.195C12.1883 137.461 12.5508 137.611 12.9291 137.611H126.241C126.618 137.611 126.981 137.461 127.249 137.195C127.516 136.928 127.667 136.566 127.667 136.189V131.92C130.561 131.374 133.174 129.838 135.056 127.575C136.938 125.314 137.97 122.467 137.975 119.528C137.952 118.759 137.32 118.147 136.549 118.148L136.548 118.148ZM83.0509 10.6574C82.1523 11.7935 80.7933 12.4716 79.3438 12.5073C78.902 12.2794 78.4596 12.0664 77.918 11.8672C78.591 11.2327 79.42 10.7867 80.3214 10.5742C81.2227 10.362 82.1645 10.3908 83.051 10.6575L83.0509 10.6574ZM78.6592 4.56811C78.7172 5.82003 78.6072 7.07373 78.331 8.29589C77.8748 8.49273 77.4399 8.73587 77.0338 9.02163C76.8996 8.52885 76.7131 8.05181 76.4777 7.59886C76.972 6.44055 77.717 5.40542 78.6591 4.56812L78.6592 4.56811ZM74.3817 10.5723C73.9064 10.4394 73.4311 10.3208 72.9558 10.2166C71.8372 9.25793 71.2135 7.84582 71.259 6.37539C72.1032 6.73941 72.8365 7.3188 73.3848 8.05568C73.9329 8.79253 74.2768 9.66092 74.3817 10.5724L74.3817 10.5723ZM61.82 17.6862C62.1616 16.5042 62.8114 15.4335 63.7035 14.5836C64.5952 13.7337 65.6965 13.1353 66.8959 12.8486C67.6302 12.6814 68.3816 12.6004 69.1345 12.6069C71.2588 12.6643 73.3572 13.0881 75.3367 13.8588C80.213 15.6373 85.5316 19.0802 83.1933 25.4688C82.1954 28.1866 78.9157 31.8995 74.8378 34.9017C70.7599 37.9037 67.3095 39.17 66.2828 38.7717C64.8569 38.2739 63.032 35.4283 61.8772 30.2351C60.7934 25.4546 60.7934 20.5462 61.834 17.7005L61.82 17.6862ZM61.0212 36.7797C61.8005 38.8255 63.3294 40.4987 65.2987 41.4607C65.7569 41.6214 66.2391 41.7033 66.7246 41.7029C70.0752 41.7029 74.5811 38.6725 76.5486 37.2067L77.1474 36.7371H77.1478C81.9303 38.3214 86.1304 41.294 89.2105 45.2737C88.2854 45.8244 87.4764 46.5492 86.8294 47.4078C85.8742 48.5319 85.3181 49.1149 84.163 49.1149C83.0082 49.1149 82.4522 48.5314 81.4965 47.4078C80.4569 45.7336 78.623 44.7147 76.6486 44.7147C74.6746 44.7147 72.8407 45.7336 71.8011 47.4078C70.8459 48.5319 70.3037 49.1149 69.1346 49.1149C67.9655 49.1149 67.4238 48.5314 66.4682 47.4078C65.4271 45.7401 63.597 44.7263 61.6277 44.7263C59.6584 44.7263 57.8282 45.7401 56.7872 47.4078C55.832 48.5319 55.2898 49.1149 54.1207 49.1149C52.9516 49.1149 52.41 48.5314 51.4543 47.4078C50.8133 46.5705 50.0202 45.8609 49.1159 45.3163C52.1556 41.3629 56.2972 38.3932 61.0217 36.7796L61.0212 36.7797ZM43.7115 60.7961C43.7208 56.1498 45.0134 51.5962 47.4473 47.6355C48.1695 47.9898 48.7882 48.5238 49.244 49.1861C50.2851 50.8538 52.1152 51.8676 54.0845 51.8676C56.0538 51.8676 57.884 50.8538 58.9255 49.1861C59.8807 48.062 60.4228 47.479 61.5919 47.479C62.7611 47.479 63.3027 48.0625 64.2584 49.1861H64.2579C65.2976 50.8608 67.1314 51.8792 69.1059 51.8792C71.0798 51.8792 72.9137 50.8608 73.9534 49.1861C74.9086 48.062 75.4507 47.479 76.6198 47.479C77.7889 47.479 78.3306 48.0625 79.2863 49.1861C80.3259 50.8608 82.1598 51.8792 84.1338 51.8792C86.1082 51.8792 87.9421 50.8608 88.9817 49.1861C89.4482 48.4992 90.0943 47.9532 90.8499 47.6068C93.2639 51.5838 94.5366 56.1461 94.5283 60.7959V61.1089H43.7113L43.7115 60.7961ZM41.1593 63.9548H97.1093C102.474 63.9599 107.445 66.7665 110.213 71.3529C107.204 71.9791 105.436 74.0136 103.868 75.863C102.3 77.7128 100.717 79.5908 97.7799 79.5908C94.8429 79.5908 93.3882 77.8692 91.6918 75.863C89.8097 73.6436 87.6853 71.1394 83.4361 71.1394C79.187 71.1394 77.0625 73.6575 75.1805 75.863C73.4837 77.855 72.0294 79.5764 69.1063 79.5764C66.1831 79.5764 64.729 77.8693 62.975 75.8773C61.0929 73.6579 58.9685 71.1537 54.7194 71.1537C50.4702 71.1537 48.3457 73.6718 46.4637 75.8773C44.7669 77.8693 43.3126 79.5908 40.3895 79.5908C37.4663 79.5908 36.0122 77.8692 34.3153 75.863C32.6185 73.8567 30.9791 71.9786 27.9845 71.3529H27.985C30.7656 66.7447 35.7696 63.9349 41.1597 63.9548H41.1593ZM25.8315 89.5646V79.1782C25.8375 77.4007 26.1564 75.6384 26.7728 73.9706C29.268 74.2124 30.6512 75.806 32.2195 77.6415C34.1016 79.8609 36.226 82.3651 40.4751 82.3651C44.7239 82.3651 46.8343 79.9321 48.7163 77.7554C50.4132 75.7634 51.8674 74.042 54.7905 74.042C57.7137 74.042 59.1679 75.7635 60.8647 77.7554C62.7468 79.9748 64.8712 82.479 69.1203 82.479C73.3691 82.479 75.4935 79.9322 77.3756 77.7554C79.0725 75.7634 80.5267 74.042 83.4498 74.042C86.373 74.042 87.8415 75.7635 89.524 77.7697C91.4061 79.9891 93.5305 82.4933 97.7796 82.4933C102.029 82.4933 104.153 79.9753 106.035 77.7697C107.604 75.9199 108.987 74.3268 111.496 74.0989H111.496C112.098 75.7259 112.416 77.4437 112.437 79.1782V89.5502H25.8316L25.8315 89.5646ZM26.4873 92.4102H111.781C116.478 92.4148 120.878 94.7032 123.573 98.5422C119.851 99.4101 117.613 101.985 115.616 104.333C113.292 107.079 111.339 109.44 107.189 109.44C103.04 109.44 101.087 107.078 98.7484 104.333C96.4101 101.587 93.5584 98.2147 88.1401 98.2147C82.7217 98.2147 79.9698 101.459 77.5317 104.333C75.0935 107.207 73.2542 109.44 69.1047 109.44C64.9563 109.44 62.9743 107.136 60.6787 104.39C58.3831 101.644 55.4887 98.2716 50.0704 98.2716C44.6519 98.2716 41.9 101.515 39.462 104.39C37.0238 107.264 35.1845 109.497 31.035 109.497C26.8856 109.497 24.9325 107.135 22.6081 104.39C20.6118 102.042 18.3305 99.467 14.6661 98.5991H14.6671C17.3675 94.7518 21.78 92.4624 26.4873 92.4666L26.4873 92.4102ZM12.0435 106.88C12.0394 104.923 12.4371 102.986 13.2127 101.189C16.5207 101.616 18.36 103.75 20.4417 106.211C22.8654 109.056 25.6318 112.329 31.0501 112.329C36.4685 112.329 39.2199 109.056 41.5871 106.211C43.9542 103.365 45.8646 101.103 50.014 101.103C54.1634 101.103 56.1165 103.465 58.441 106.211C60.765 108.957 63.631 112.329 69.0493 112.329C74.4668 112.329 77.2331 109.056 79.7139 106.211C82.1948 103.365 83.9914 101.103 88.1409 101.103C92.2903 101.103 94.2433 103.465 96.5817 106.211C98.9201 108.957 101.772 112.329 107.19 112.329C112.608 112.329 115.374 109.056 117.798 106.211C119.88 103.749 121.733 101.615 125.041 101.189C125.817 102.986 126.215 104.923 126.211 106.88V118.148H12.0435L12.0435 106.88ZM124.799 134.766H14.3534V132.177H124.813L124.799 134.766ZM125.312 129.331H12.9276C10.579 129.326 8.31036 128.48 6.534 126.948C4.75729 125.415 3.59083 123.297 3.24601 120.979H135.017C134.673 123.299 133.504 125.419 131.724 126.952C129.945 128.485 127.672 129.329 125.322 129.331L125.312 129.331Z" fill="white"/>
</svg>
