<svg width="108" height="108" viewBox="0 0 108 108" fill="none" xmlns="http://www.w3.org/2000/svg">
<circle cx="54" cy="54" r="54" fill="#7C7287"/>
<path d="M78.635 51.673C77.7477 53.4478 76.5139 55.2574 75.0692 56.888H32.9317C31.487 55.2566 30.2515 53.4464 29.3653 51.673C27.9001 48.7431 27.219 45.8495 27.3073 43.1445H80.6923C80.7812 45.8492 80.099 48.7425 78.6343 51.673H78.635Z" fill="white"/>
<path d="M79.015 36.6195C76.39 32.371 71.3425 29.6265 66.1575 29.6265C60.7 29.6265 56.3015 32.5034 54.001 37.5465C51.7012 32.5035 47.303 29.6265 41.8445 29.6265C36.66 29.6265 31.6125 32.3708 28.9875 36.6195C26.2936 40.9785 26.3416 46.4415 29.1207 52.0015C31.6977 57.155 37.0337 61.5385 42.1947 65.778C47.2822 69.9594 52.0887 73.91 53.6207 78.1075C53.6789 78.267 53.8318 78.3727 54.0012 78.3727H54.0023C54.1703 78.3727 54.3227 78.2665 54.3822 78.1075C55.9135 73.9124 60.7202 69.962 65.8087 65.7795C70.9697 61.5387 76.3077 57.152 78.8822 52.002C81.6619 46.44 81.71 40.9775 79.0154 36.6195H79.015ZM41.8445 30.4365C47.2825 30.4365 51.576 33.4617 53.623 38.7345C53.74 39.0405 54.2638 39.0374 54.3785 38.7356C56.4263 33.4616 60.72 30.4366 66.158 30.4366C71.0683 30.4366 75.845 33.031 78.3255 37.0461C80.8671 41.1578 80.8077 46.3401 78.1581 51.6391C75.6573 56.6406 70.3886 60.9676 65.2901 65.1566C60.4696 69.118 55.9066 72.8686 54.0021 76.9201C52.0976 72.8678 47.5331 69.1151 42.7101 65.1521C37.6136 60.9648 32.3446 56.6351 29.8461 51.6391C27.1965 46.3391 27.1365 41.1566 29.6775 37.0461C32.1586 33.0309 36.935 30.4361 41.845 30.4361L41.8445 30.4365Z" fill="white"/>
</svg>
