<svg width="181" height="215" viewBox="0 0 181 215" fill="none" xmlns="http://www.w3.org/2000/svg">
<g clip-path="url(#clip0_9_94)">
<path d="M63.0942 170.627C63.0942 175.224 64.8825 179.549 68.1316 182.804C68.4502 183.122 68.8961 183.306 69.3509 183.306C69.8056 183.306 70.2516 183.122 70.5745 182.801C70.8997 182.475 71.0798 182.043 71.0798 181.582C71.0798 181.126 70.8953 180.683 70.5745 180.36C67.9713 177.757 66.5411 174.3 66.5411 170.625C66.5411 166.949 67.9735 163.494 70.5723 160.893C71.0095 160.457 71.1809 159.819 71.0205 159.226C70.8623 158.632 70.3944 158.165 69.7991 158.007C69.6519 157.967 69.5047 157.948 69.3553 157.948C68.9027 157.948 68.459 158.125 68.1316 158.452C64.8847 161.705 63.0964 166.028 63.0964 170.625L63.0942 170.627Z" fill="white"/>
<path d="M116.638 29.0121C117.275 30.5583 117.873 32.1221 118.431 33.7012C122.394 23.5926 128.202 14.1968 135.5 6.16079L137.346 4.12767L139.191 6.16079C154.139 22.621 162.372 43.926 162.372 66.1478C162.372 85.8189 155.916 104.768 144.066 120.279V124.336C144.431 124.387 144.791 124.444 145.153 124.503C153.315 114.441 159.312 102.737 162.687 90.1834C166.913 74.458 166.913 57.8377 162.687 42.1166C158.46 26.3933 150.123 12.0057 138.578 0.511031C138.249 0.182046 137.816 0.00439453 137.355 0.00439453C136.893 0.00439453 136.458 0.184239 136.133 0.508837C127.899 8.7181 121.287 18.4166 116.638 29.0142V29.0121Z" fill="white"/>
<path d="M118.429 98.5945C117.871 100.174 117.273 101.737 116.636 103.284C119.971 110.888 124.318 118.029 129.551 124.488C129.914 124.429 130.278 124.374 130.645 124.321V120.303C125.595 113.68 121.467 106.345 118.429 98.5923V98.5945Z" fill="white"/>
<path d="M139.081 66.1477C139.081 65.5336 138.75 64.9634 138.218 64.6541C137.952 64.5006 137.653 64.4238 137.355 64.4238C137.056 64.4238 136.757 64.5006 136.491 64.6541C135.957 64.9612 135.628 65.5336 135.628 66.1477V123.893C136.171 123.876 136.715 123.865 137.26 123.865H137.355C137.932 123.865 138.508 123.878 139.081 123.9V66.1477Z" fill="white"/>
<path d="M137.35 128.837C137.322 128.837 137.293 128.837 137.267 128.837C130.758 128.837 124.442 130.302 118.684 133.116C119.723 133.879 120.731 134.682 121.702 135.526C126.577 133.401 131.847 132.296 137.258 132.296H137.363C158.976 132.296 176.564 149.848 176.564 171.423C176.564 192.998 158.972 210.552 137.346 210.552H137.243C131.838 210.552 126.575 209.449 121.702 207.326C120.735 208.166 119.731 208.964 118.697 209.725C124.343 212.482 130.527 213.945 136.898 214H137.359C160.872 214 180.002 194.897 180.002 171.414C180.002 147.931 160.87 128.839 137.352 128.839L137.35 128.837Z" fill="white"/>
<path d="M65.4119 48.2203C64.8693 48.0799 64.3574 47.8716 63.8763 47.6106C61.3829 59.8291 61.3807 72.4533 63.8741 84.6718C64.3486 84.413 64.8583 84.2068 65.3943 84.0687C66.0248 83.9064 66.6685 83.8406 67.3056 83.8647C66.1435 78.0811 65.5415 72.1528 65.5415 66.1522C65.5415 60.1515 66.1435 54.2144 67.3078 48.4265C66.6773 48.4484 66.038 48.3826 65.4119 48.2203Z" fill="white"/>
<path d="M71.5851 98.5308C71.0227 100.127 70.4164 101.707 69.7727 103.27C73.1119 110.892 77.4683 118.042 82.7166 124.514C83.0747 124.455 83.4328 124.4 83.7931 124.349V120.29C78.6941 113.611 74.5948 106.286 71.5851 98.5308Z" fill="white"/>
<path d="M71.5983 33.7406C75.5131 23.665 81.2579 14.3108 88.6569 6.16079L90.5023 4.12766L92.3476 6.16079C107.253 22.5815 115.463 43.8865 115.463 66.1522C115.463 85.8605 109.026 104.812 97.2115 120.29V124.35C97.5718 124.4 97.9298 124.455 98.2879 124.514C106.454 114.447 112.455 102.742 115.832 90.1812C120.059 74.4579 120.059 57.8377 115.832 42.1144C111.605 26.3911 103.268 12.0035 91.7237 0.508833C91.3964 0.179849 90.9636 0.00219727 90.5023 0.00219727C90.0409 0.00219727 89.6081 0.179849 89.283 0.50664C81.036 8.72028 74.4257 18.4078 69.7815 29.0033C70.4274 30.567 71.0337 32.1462 71.5961 33.7428L71.5983 33.7406Z" fill="white"/>
<path d="M92.2289 66.1477C92.2289 65.5336 91.8971 64.9612 91.3655 64.6541C91.0997 64.5006 90.8009 64.4238 90.5021 64.4238C90.2034 64.4238 89.9046 64.5006 89.6388 64.6541C89.1071 64.9612 88.7754 65.5336 88.7754 66.1477V123.911C89.3488 123.891 89.9244 123.876 90.5021 123.876C91.0799 123.876 91.6555 123.889 92.2289 123.911V66.1477Z" fill="white"/>
<path d="M51.3102 171.423C51.3102 160.439 55.8708 150.497 63.1974 143.385C62.2219 142.705 61.2136 142.084 60.1855 141.516C52.569 149.21 47.8567 159.779 47.8567 171.427C47.8567 183.075 52.5712 193.651 60.1942 201.347C61.2246 200.777 62.2307 200.154 63.2061 199.474C55.873 192.359 51.3102 182.415 51.3102 171.425V171.423Z" fill="white"/>
<path d="M133.148 171.425C133.148 147.949 114.017 128.85 90.5022 128.85C83.8083 128.85 77.4704 130.401 71.8267 133.155C72.6812 133.956 73.3183 134.974 73.661 136.097C78.7665 133.66 84.4784 132.296 90.5044 132.296C112.115 132.296 129.696 149.848 129.696 171.425C129.696 193.002 112.115 210.552 90.5044 210.552C84.4366 210.552 78.6874 209.168 73.5556 206.701C73.248 207.824 72.6483 208.857 71.8135 209.688C77.4616 212.449 83.8039 214.002 90.5044 214.002C114.02 214.002 133.15 194.904 133.15 171.427L133.148 171.425Z" fill="white"/>
<path d="M18.3288 42.1144C14.102 57.8377 14.102 74.4602 18.3288 90.1812C21.7053 102.742 27.7093 114.449 35.8729 124.514C36.2288 124.455 36.5846 124.4 36.9427 124.35V120.29C25.0863 104.775 18.6275 85.8189 18.6275 66.1434C18.6275 43.9238 26.8592 22.621 41.8066 6.15859L43.6519 4.12766L45.4973 6.15859C54.812 16.4032 61.7057 28.8651 65.4316 42.1934C65.5964 42.7899 66.0687 43.2549 66.664 43.4084C67.2594 43.5619 67.8987 43.3865 68.3293 42.9478C68.7598 42.5092 68.9268 41.871 68.762 41.2788C64.4606 25.8933 56.2048 11.7952 44.8822 0.506636C44.5548 0.179845 44.1199 0 43.6585 0C43.1972 0 42.7622 0.179845 42.4371 0.504443C30.8904 12.0057 22.5533 26.3911 18.3266 42.1122L18.3288 42.1144Z" fill="white"/>
<path d="M68.7402 91.0104C68.9028 90.4226 68.738 89.7844 68.3053 89.3457C67.8747 88.9093 67.2354 88.7316 66.64 88.8851C66.0447 89.0387 65.5724 89.5014 65.4076 90.0936C62.3672 100.981 57.2155 111.289 50.3569 120.286V124.334C50.715 124.385 51.0709 124.44 51.4268 124.497C59.4014 114.656 65.3219 103.24 68.738 91.0082L68.7402 91.0104Z" fill="white"/>
<path d="M45.3788 66.1477C45.3788 65.5336 45.047 64.9612 44.5154 64.6541C44.2496 64.5006 43.9508 64.4238 43.652 64.4238C43.3533 64.4238 43.0545 64.5006 42.7887 64.6541C42.2548 64.9612 41.9253 65.5336 41.9253 66.1477V123.911C42.4987 123.891 43.0742 123.876 43.652 123.876H45.3788V66.1477Z" fill="white"/>
<path d="M1 171.425C1 194.901 20.1324 214 43.6498 214H44.1661C52.7646 213.921 61.0182 211.283 68.0745 206.352C68.5798 205.999 68.8609 205.4 68.806 204.788C68.7533 204.177 68.3732 203.635 67.8152 203.374C67.2572 203.113 66.5982 203.17 66.0929 203.523C59.4804 208.144 51.7211 210.565 43.6432 210.552C33.1972 210.552 23.3596 206.479 15.9518 199.086C8.54401 191.691 4.46445 181.871 4.46445 171.434C4.46445 149.859 22.0459 132.307 43.6586 132.307H43.7575C51.7848 132.307 59.5089 134.737 66.0929 139.336L66.1852 139.404C66.5586 139.691 67.0397 139.814 67.5033 139.744C67.9668 139.671 68.3886 139.411 68.6566 139.027C68.9247 138.643 69.0257 138.158 68.9312 137.698C68.8368 137.237 68.5556 136.829 68.158 136.581L68.0525 136.511C60.8864 131.497 52.4768 128.85 43.7267 128.85C43.7003 128.85 43.6762 128.85 43.6498 128.85H43.2829C19.9369 129.045 1 148.069 1 171.425Z" fill="white"/>
</g>
<defs>
<clipPath id="clip0_9_94">
<rect width="179" height="214" fill="white" transform="translate(1)"/>
</clipPath>
</defs>
</svg>
