<svg width="108" height="108" viewBox="0 0 108 108" fill="none" xmlns="http://www.w3.org/2000/svg">
<circle cx="54" cy="54" r="54" fill="#84A98C"/>
<path d="M74.865 71.924H65.01C64.779 71.924 64.5694 71.7853 64.4794 71.5724C62.779 67.5677 62.0331 59.8379 62.0014 59.5099C60.646 47.5884 63.046 45.4834 63.3231 45.2829C63.5091 45.1488 63.7581 45.1388 63.9542 45.2536C66.0579 46.4964 67.3843 49.5411 68.1266 51.8771C68.2044 52.1238 68.3756 52.3223 68.6067 52.4371C68.8422 52.5543 69.1093 52.5678 69.3571 52.4787L70.2878 52.1451C70.7012 51.9963 70.9639 51.575 70.912 51.1434C70.912 51.1422 70.895 51.0115 70.895 51.0103C70.3225 46.031 68.4792 41.2328 65.5655 37.1348C64.0161 34.9579 62.5309 32.6569 61.9541 31.5403C61.3512 30.3684 61.6543 28.9194 62.6752 28.0946C63.7457 27.227 65.3131 27.28 66.3239 28.2196L75.7589 38.3301C78.7358 40.986 80.6063 44.5881 80.9884 48.4386L81.0278 48.8443C81.3546 52.2057 80.71 57.1703 79.4233 61.1988C79.0493 62.3662 78.6368 63.4119 78.1962 64.3043C76.8237 67.0818 75.8931 69.4953 75.4264 71.4788C75.3659 71.7391 75.1336 71.9239 74.8655 71.9239L74.865 71.924ZM65.399 70.7703H74.4135C74.9274 68.7916 75.8502 66.4479 77.1618 63.7943C77.5764 62.9525 77.9674 61.9609 78.3235 60.8476C79.5674 56.9545 80.1928 52.1756 79.8786 48.9576L79.8391 48.5519C79.4864 44.9912 77.7512 41.6539 74.9534 39.1544L65.5094 29.0354C64.9471 28.5137 64.0287 28.4844 63.4012 28.9915C62.7938 29.4827 62.6203 30.3132 62.9797 31.0118C63.4473 31.9167 64.8096 34.0823 66.5055 36.4653C69.532 40.7223 71.4465 45.7063 72.0425 50.8768L71.4847 51.0729L72.0571 51.003C72.1767 51.9799 71.6087 52.8959 70.6778 53.2307L69.7472 53.5643C69.1995 53.7616 68.6124 53.7288 68.0952 53.4708C67.5802 53.2161 67.2005 52.7733 67.0271 52.2257C66.5111 50.602 65.4316 47.8198 63.7808 46.5297C63.2749 47.4187 62.139 50.5027 63.1497 59.3897C63.1575 59.4766 63.8675 66.8252 65.3987 70.7692L65.399 70.7703ZM78.8735 61.0233H78.8848H78.8735Z" fill="white"/>
<path d="M78.185 80.52H62.1675C61.8486 80.52 61.5906 80.2619 61.5906 79.943V71.3455C61.5906 71.0266 61.8486 70.7686 62.1675 70.7686H78.185C78.504 70.7686 78.762 71.0266 78.762 71.3455V79.943C78.762 80.2619 78.504 80.52 78.185 80.52ZM62.7445 79.3661H77.608V71.9221H62.7445V79.3661Z" fill="white"/>
<path d="M42.9875 71.9239H33.1335C32.8653 71.9239 32.6331 71.7403 32.5724 71.4788C32.1036 69.4899 31.1718 67.0764 29.8026 64.3058C29.362 63.4146 28.9485 62.3689 28.5745 61.1991C27.2878 57.1708 26.6433 52.2061 26.97 48.8446L27.0095 48.439C27.3915 44.5888 29.262 40.9865 32.276 38.2935L41.6455 28.249C42.681 27.281 44.2517 27.2269 45.3222 28.0947C46.3431 28.9195 46.6462 30.3685 46.0433 31.5394C45.472 32.6482 43.9881 34.9492 42.433 37.1349C39.5179 41.232 37.6746 46.0299 37.102 51.0104L37.0852 51.1491C37.0334 51.5751 37.2959 51.9963 37.7094 52.1452L38.64 52.4788C38.8879 52.5678 39.1539 52.5532 39.3904 52.4372C39.6215 52.3223 39.7928 52.1239 39.8705 51.8772C40.6142 49.5413 41.9427 46.4957 44.042 45.2537C44.2393 45.1389 44.4871 45.1488 44.6742 45.283C44.9514 45.4836 47.3516 47.5885 45.9949 59.5215C45.9645 59.8381 45.2186 67.568 43.5182 71.5725C43.428 71.7854 43.2184 71.9239 42.9873 71.9239H42.9875ZM33.5855 70.7702H42.599C44.1314 66.8241 44.8402 59.4772 44.8471 59.4017C45.8545 50.5437 44.7322 47.4472 44.2127 46.5337C42.5676 47.8251 41.4869 50.6048 40.9709 52.2262C40.7974 52.7738 40.4176 53.2166 39.9027 53.4713C39.3855 53.726 38.7984 53.7609 38.2508 53.5648L37.3201 53.2312C36.3895 52.8967 35.8215 51.9804 35.9408 51.0035L35.9555 50.883C36.5516 45.7055 38.466 40.7215 41.494 36.4655C43.1955 34.0721 44.5555 31.9098 45.0186 31.0105C45.3779 30.313 45.2045 29.4825 44.5971 28.9913C43.9684 28.4831 43.05 28.5148 42.4607 29.0646L33.0822 39.1166C30.2473 41.6531 28.5119 44.9906 28.1592 48.5516L28.1195 48.9572C27.8053 52.1754 28.4307 56.9542 29.6746 60.8472C30.0307 61.9628 30.4229 62.9543 30.8375 63.7939C32.1469 66.4429 33.0698 68.7867 33.5858 70.7699L33.5855 70.7702Z" fill="white"/>
<path d="M45.833 80.52H29.8165C29.4976 80.52 29.2396 80.2619 29.2396 79.943V71.3455C29.2396 71.0266 29.4976 70.7686 29.8165 70.7686H45.833C46.152 70.7686 46.41 71.0266 46.41 71.3455V79.943C46.4098 80.2619 46.1518 80.52 45.833 80.52ZM30.3935 79.3661H45.256V71.9221H30.3935V79.3661Z" fill="white"/>
<path d="M54.028 55.9374C53.7091 55.9374 53.451 55.6794 53.451 55.3605V44.7315C53.451 44.4125 53.7091 44.1545 54.028 44.1545C54.3469 44.1545 54.6049 44.4126 54.6049 44.7315V55.3605C54.6049 55.6792 54.3469 55.9374 54.028 55.9374Z" fill="white"/>
<path d="M56.275 45.3996C55.8029 45.3996 55.3262 45.3557 54.8463 45.2654L53.9223 45.092C53.7713 45.0639 53.6383 44.9772 53.5516 44.8508C53.4661 44.7246 53.4333 44.5692 53.4614 44.4182L53.636 43.492C54.4213 39.3217 58.4485 36.5645 62.6255 37.351L63.5516 37.5245C63.7026 37.5526 63.8356 37.6393 63.9223 37.7657C64.0079 37.8918 64.0407 38.0473 64.0126 38.1983L63.838 39.1244C63.1429 42.817 59.902 45.3994 56.275 45.3994L56.275 45.3996ZM54.702 44.0643L55.0592 44.1319C58.6143 44.8 62.0362 42.4563 62.7047 38.9104L62.7723 38.552L62.4139 38.4844H62.4127C60.6989 38.1633 58.9545 38.526 57.51 39.5121C56.0666 40.4992 55.093 41.9877 54.7695 43.7061L54.702 44.0643Z" fill="white"/>
<path d="M52.541 45.3995C50.7021 45.3995 48.9431 44.7505 47.5345 43.5392C45.9749 42.1984 45.0308 40.33 44.8753 38.2792L44.8044 37.3405C44.7931 37.1872 44.8427 37.0362 44.9431 36.9202C45.0423 36.8042 45.1843 36.7331 45.3362 36.7208L46.2761 36.6499H46.2772C48.3257 36.4956 50.3145 37.1491 51.8752 38.4899C53.4348 39.8307 54.3789 41.6991 54.5334 43.7499L54.6043 44.6874C54.628 45.0052 54.3903 45.2823 54.0725 45.3072L53.1338 45.3781C52.9352 45.3927 52.7379 45.3996 52.5409 45.3996L52.541 45.3995ZM45.999 37.8285L46.0271 38.1914C46.1578 39.9358 46.9613 41.5244 48.2875 42.6637C49.6127 43.8029 51.3051 44.3674 53.0459 44.2266L53.4097 44.1996L53.3816 43.8367C53.2509 42.0924 52.4486 40.5047 51.1224 39.3656C49.7962 38.2242 48.097 37.6652 46.364 37.8016L45.999 37.8285Z" fill="white"/>
<path d="M54.028 64.5854C51.3259 64.5854 49.1276 62.3869 49.1276 59.685C49.1276 56.9819 51.3261 54.7834 54.028 54.7834C56.7311 54.7834 58.9296 56.9819 58.9296 59.685C58.9296 62.3871 56.7313 64.5854 54.028 64.5854ZM54.028 55.9374C51.9626 55.9374 50.2813 57.6186 50.2813 59.685C50.2813 61.7505 51.9626 63.4317 54.028 63.4317C56.0946 63.4317 57.7757 61.7505 57.7757 59.685C57.7759 57.6184 56.0946 55.9374 54.028 55.9374Z" fill="white"/>
</svg>
