<svg width="108" height="108" viewBox="0 0 108 108" fill="none" xmlns="http://www.w3.org/2000/svg">
<circle cx="54" cy="54" r="54" fill="#F6EBF3"/>
<path d="M65.316 32.5625C58.2335 32.5625 52.472 38.324 52.472 45.406C52.472 52.2855 57.9135 57.9035 64.716 58.2205V76.832H63.1781C62.8468 76.832 62.5781 77.1002 62.5781 77.432C62.5781 77.7638 62.8468 78.032 63.1781 78.032H67.4542C67.7855 78.032 68.0542 77.7638 68.0542 77.432C68.0542 77.1002 67.7855 76.832 67.4542 76.832H65.9159V58.2205C72.7184 57.9037 78.1599 52.2865 78.1599 45.406C78.1599 38.3245 72.3984 32.5625 65.3159 32.5625H65.316ZM65.916 57.02V53.1194L71.3905 47.6449C71.6251 47.4103 71.6251 47.031 71.3905 46.7964C71.1559 46.5618 70.7766 46.5619 70.542 46.7964L65.916 51.4224V43.2264C65.916 42.8946 65.6473 42.6264 65.316 42.6264C64.9848 42.6264 64.716 42.8946 64.716 43.2264V51.4224L60.09 46.7964C59.8555 46.5619 59.4762 46.5619 59.2416 46.7964C59.007 47.031 59.007 47.4103 59.2416 47.6449L64.7166 53.1194V57.02C58.5756 56.705 53.6726 51.6245 53.6726 45.4055C53.6726 38.9855 58.8961 33.762 65.3166 33.762C71.7371 33.762 76.9606 38.9855 76.9606 45.4055C76.96 51.624 72.0569 56.705 65.9161 57.02H65.916Z" fill="#7C7287"/>
<path d="M39.949 68.9405V76.8315H38.4111C38.0798 76.8315 37.8111 77.0997 37.8111 77.4315C37.8111 77.7633 38.0798 78.0315 38.4111 78.0315H42.6872C43.0185 78.0315 43.2872 77.7633 43.2872 77.4315C43.2872 77.0997 43.0185 76.8315 42.6872 76.8315H41.1493L41.1495 68.9405C46.733 68.3808 51.0235 60.0505 51.0235 49.5125C51.0235 38.5995 46.4227 30.0515 40.5495 30.0515C34.6763 30.0515 30.0755 38.5995 30.0755 49.5125C30.0749 60.05 34.3656 68.3815 39.949 68.9405H39.949ZM40.549 31.252C45.663 31.252 49.823 39.444 49.823 49.513C49.823 59.1845 45.9835 67.1195 41.149 67.731V63.5617L43.8875 60.8232C44.1221 60.5886 44.1221 60.2093 43.8875 59.9747C43.6529 59.7401 43.2736 59.7401 43.039 59.9747L41.149 61.8648V58.8263L43.8875 56.0878C44.1221 55.8532 44.1221 55.4739 43.8875 55.2393C43.6529 55.0047 43.2736 55.0047 43.039 55.2393L41.149 57.1294V53.2749C41.149 52.943 40.8802 52.6749 40.549 52.6749C40.2177 52.6749 39.949 52.943 39.949 53.2749V57.1294L38.0589 55.2393C37.8244 55.0047 37.4451 55.0047 37.2105 55.2393C36.9759 55.4739 36.9759 55.8532 37.2105 56.0878L39.949 58.8263V61.8648L38.0589 59.9747C37.8244 59.7401 37.4451 59.7401 37.2105 59.9747C36.9759 60.2093 36.9759 60.5886 37.2105 60.8232L39.949 63.5617V67.731C35.1142 67.1197 31.275 59.1845 31.275 49.513C31.275 39.444 35.4353 31.252 40.549 31.252Z" fill="#7C7287"/>
</svg>
