<svg width="137" height="170" viewBox="0 0 137 170" fill="none" xmlns="http://www.w3.org/2000/svg">
<g clip-path="url(#clip0_509_112)">
<path d="M66.9293 154.54L66.0116 154.738L65.8392 153.573C65.2414 149.461 63.3531 145.653 60.9104 143.636L60.707 143.463C55.0949 138.826 55.1679 136.609 55.3589 130.786C55.3791 130.166 55.3977 129.515 55.4164 128.823L55.4397 127.922L56.3248 127.767C72.3597 124.939 83.9984 111.038 83.9984 94.7132C83.9984 86.3051 80.9999 80.4436 74.8334 76.791C70.0366 73.9504 63.5317 72.4882 54.362 72.191L52.9628 72.1459L53.3371 70.7941C55.0219 64.7132 58.0361 59.9795 60.9492 55.4013L60.9632 55.3811C64.7398 49.4558 68.3052 43.8587 68.3052 36.286C68.3052 25.0763 60.4508 21.083 53.0995 21.083C46.4703 21.083 39.7806 24.888 39.7806 33.391C39.7806 38.5494 44.6146 41.3806 49.1614 41.4257H49.2701C53.5467 41.4257 56.4615 39.1421 56.5251 35.7431C56.5329 35.3448 56.3854 34.9684 56.109 34.6822C55.8325 34.3944 55.4614 34.2326 55.0623 34.2248C54.6679 34.2139 54.2936 34.3586 54.011 34.6293C53.7206 34.9077 53.556 35.2842 53.5483 35.6902C53.511 37.5958 51.368 38.4436 49.2422 38.4436C49.2251 38.4436 49.208 38.4436 49.1909 38.4436C45.9936 38.4125 42.759 36.6687 42.759 33.3926C42.759 26.5105 48.3291 24.0698 53.0995 24.0698C55.2362 24.0698 58.3156 24.4385 60.8499 26.1979C63.8236 28.2606 65.3299 31.6565 65.3299 36.2907C65.3299 43.0031 62.1434 47.9966 58.4538 53.7804C55.3589 58.6339 51.8525 64.1361 50.1289 71.2997L49.9285 72.135L49.0714 72.1444C34.1405 72.3015 17 75.0145 17 94.7147C17 113.222 32.0286 128.277 50.5 128.277C50.736 128.277 50.986 128.272 51.2904 128.265L52.4582 128.23L52.4147 129.643C52.4038 130.001 52.3929 130.349 52.3821 130.679C52.1786 136.875 52.3262 140.07 57.8559 144.949L58.4973 145.515L58.109 146.277C57.4056 147.658 55.7689 148.324 52.3665 149.296C48.8819 150.294 44.1208 151.655 44.1208 156.695C44.1208 157.518 44.7886 158.187 45.61 158.187C46.4315 158.187 47.0992 157.518 47.0992 156.695C47.0992 154.041 49.4114 153.245 53.1833 152.167L53.2144 152.157C55.3636 151.54 58.0376 150.77 59.7396 149.071L60.8374 147.974L61.5083 149.374C62.3002 151.026 62.8111 152.898 62.9866 154.786C63.2894 157.949 62.808 162.732 58.7954 167.556C58.5407 167.863 58.4212 168.25 58.4569 168.648C58.4926 169.045 58.6805 169.404 58.9864 169.658C59.3249 169.941 59.6914 170 59.9399 170C60.3871 170 60.8033 169.807 61.0828 169.47C63.8267 166.17 65.4494 162.521 65.9091 158.621L66.0535 157.392L67.2554 157.678C71.6671 158.728 76.1766 160.315 76.1766 164.128C76.1766 164.951 76.8444 165.619 77.6659 165.619C78.4873 165.619 79.155 164.951 79.155 164.128C79.155 158.061 72.6718 155.807 66.9278 154.54H66.9293ZM50.4984 125.289H50.4938C42.3552 125.289 34.6965 122.106 28.926 116.325C23.1556 110.543 19.9768 102.868 19.9768 94.7116V91.6673L20.1166 91.8368C20.3821 89.2499 21.0235 87.0285 22.0608 85.0979C23.4817 82.4518 25.606 80.4062 28.558 78.8475C33.0132 76.4954 39.2339 75.3178 48.1396 75.1405L49.3866 75.1156L49.2561 76.3585C49.1412 77.4552 49.0667 78.569 49.0341 79.6704L49.003 80.7251L47.9502 80.7407C38.5802 80.8822 32.8284 81.8452 29.3018 83.8612C28.5906 84.2688 28.3406 85.1835 28.7459 85.8991C29.0099 86.3626 29.5068 86.652 30.0394 86.652C30.2941 86.652 30.5488 86.5835 30.7755 86.4544C34.0551 84.5784 40.3225 83.7057 50.4984 83.7057C60.6744 83.7057 66.9029 84.5535 70.223 86.4544C70.9357 86.8589 71.8488 86.61 72.2572 85.896C72.6641 85.1835 72.4141 84.2704 71.6997 83.8597C68.1716 81.8467 62.4322 80.8838 53.0933 80.7407L51.9721 80.7236L52.0094 79.602C52.0498 78.4228 52.1398 77.2514 52.2796 76.1221L52.4023 75.1311L53.3992 75.156C62.0176 75.366 68.066 76.5405 72.4358 78.8491C75.3878 80.4078 77.5152 82.4518 78.9345 85.0995C80.3352 87.7098 81.0169 90.8568 81.0169 94.7163C81.0169 111.578 67.3253 125.296 50.4938 125.296L50.4984 125.289Z" fill="white"/>
<path d="M69.386 24.1024C69.768 24.1475 70.1515 24.1693 70.5335 24.1693C76.012 24.1693 80.4703 19.7063 80.4703 14.2212C80.4703 13.8416 80.447 13.4558 80.4036 13.0685C80.0169 13.0234 79.6364 13.0016 79.2529 13.0016C73.7759 13.0016 69.3207 17.4646 69.3207 22.9497C69.3207 23.334 69.3425 23.7197 69.3875 24.1024H69.386Z" fill="white"/>
<path d="M48.1862 61.969C48.5651 61.969 48.9487 61.9457 49.3338 61.9021C49.3773 61.521 49.399 61.1352 49.399 60.7494C49.399 55.2612 44.9439 50.7966 39.4685 50.7966C39.088 50.7966 38.7029 50.82 38.3178 50.8651C38.2727 51.2524 38.2495 51.6367 38.2495 52.0178C38.2495 57.5044 42.7062 61.969 48.1847 61.969H48.1862Z" fill="white"/>
</g>
<defs>
<clipPath id="clip0_509_112">
<rect width="67" height="157" fill="white" transform="translate(17 13)"/>
</clipPath>
</defs>
</svg>
